name C:\Users\u0101727\Documents\MyRepositories\upper-imu-dc\OpenSim\subject0\MA\ResultsMA\grid_3nodes_9dim\angles_1.mot
datacolumns 10
datarows 52
range 148.42000000 148.93000000
endheader 
time	clav_prot	clav_elev	scapula_abduction	scapula_elevation	scapula_upward_rot	scapula_winging	plane_elv	shoulder_elv	axial_rot	
        148.42000000	        -50.00000000	        -10.00000000	         15.00000000	        -10.00000000	          0.00000000	         -5.00000000	         90.00000000	        -10.00000000	         90.00000000	
        148.43000000	        -32.50000000	        -10.00000000	         15.00000000	        -10.00000000	          0.00000000	         -5.00000000	         90.00000000	        -10.00000000	         90.00000000	
        148.44000000	        -15.00000000	        -10.00000000	         15.00000000	        -10.00000000	          0.00000000	         -5.00000000	         90.00000000	        -10.00000000	         90.00000000	
        148.45000000	        -50.00000000	          5.00000000	         15.00000000	        -10.00000000	          0.00000000	         -5.00000000	         90.00000000	        -10.00000000	         90.00000000	
        148.46000000	        -32.50000000	          5.00000000	         15.00000000	        -10.00000000	          0.00000000	         -5.00000000	         90.00000000	        -10.00000000	         90.00000000	
        148.47000000	        -15.00000000	          5.00000000	         15.00000000	        -10.00000000	          0.00000000	         -5.00000000	         90.00000000	        -10.00000000	         90.00000000	
        148.48000000	        -50.00000000	         20.00000000	         15.00000000	        -10.00000000	          0.00000000	         -5.00000000	         90.00000000	        -10.00000000	         90.00000000	
        148.49000000	        -32.50000000	         20.00000000	         15.00000000	        -10.00000000	          0.00000000	         -5.00000000	         90.00000000	        -10.00000000	         90.00000000	
        148.50000000	        -15.00000000	         20.00000000	         15.00000000	        -10.00000000	          0.00000000	         -5.00000000	         90.00000000	        -10.00000000	         90.00000000	
        148.51000000	        -50.00000000	        -10.00000000	        -40.00000000	          0.00000000	          0.00000000	         -5.00000000	         90.00000000	        -10.00000000	         90.00000000	
        148.52000000	        -32.50000000	        -10.00000000	        -40.00000000	          0.00000000	          0.00000000	         -5.00000000	         90.00000000	        -10.00000000	         90.00000000	
        148.53000000	        -15.00000000	        -10.00000000	        -40.00000000	          0.00000000	          0.00000000	         -5.00000000	         90.00000000	        -10.00000000	         90.00000000	
        148.54000000	        -50.00000000	          5.00000000	        -40.00000000	          0.00000000	          0.00000000	         -5.00000000	         90.00000000	        -10.00000000	         90.00000000	
        148.55000000	        -32.50000000	          5.00000000	        -40.00000000	          0.00000000	          0.00000000	         -5.00000000	         90.00000000	        -10.00000000	         90.00000000	
        148.56000000	        -15.00000000	          5.00000000	        -40.00000000	          0.00000000	          0.00000000	         -5.00000000	         90.00000000	        -10.00000000	         90.00000000	
        148.57000000	        -50.00000000	         20.00000000	        -40.00000000	          0.00000000	          0.00000000	         -5.00000000	         90.00000000	        -10.00000000	         90.00000000	
        148.58000000	        -32.50000000	         20.00000000	        -40.00000000	          0.00000000	          0.00000000	         -5.00000000	         90.00000000	        -10.00000000	         90.00000000	
        148.59000000	        -15.00000000	         20.00000000	        -40.00000000	          0.00000000	          0.00000000	         -5.00000000	         90.00000000	        -10.00000000	         90.00000000	
        148.60000000	        -50.00000000	        -10.00000000	        -12.50000000	          0.00000000	          0.00000000	         -5.00000000	         90.00000000	        -10.00000000	         90.00000000	
        148.61000000	        -32.50000000	        -10.00000000	        -12.50000000	          0.00000000	          0.00000000	         -5.00000000	         90.00000000	        -10.00000000	         90.00000000	
        148.62000000	        -15.00000000	        -10.00000000	        -12.50000000	          0.00000000	          0.00000000	         -5.00000000	         90.00000000	        -10.00000000	         90.00000000	
        148.63000000	        -50.00000000	          5.00000000	        -12.50000000	          0.00000000	          0.00000000	         -5.00000000	         90.00000000	        -10.00000000	         90.00000000	
        148.64000000	        -32.50000000	          5.00000000	        -12.50000000	          0.00000000	          0.00000000	         -5.00000000	         90.00000000	        -10.00000000	         90.00000000	
        148.65000000	        -15.00000000	          5.00000000	        -12.50000000	          0.00000000	          0.00000000	         -5.00000000	         90.00000000	        -10.00000000	         90.00000000	
        148.66000000	        -50.00000000	         20.00000000	        -12.50000000	          0.00000000	          0.00000000	         -5.00000000	         90.00000000	        -10.00000000	         90.00000000	
        148.67000000	        -32.50000000	         20.00000000	        -12.50000000	          0.00000000	          0.00000000	         -5.00000000	         90.00000000	        -10.00000000	         90.00000000	
        148.68000000	        -15.00000000	         20.00000000	        -12.50000000	          0.00000000	          0.00000000	         -5.00000000	         90.00000000	        -10.00000000	         90.00000000	
        148.69000000	        -50.00000000	        -10.00000000	         15.00000000	          0.00000000	          0.00000000	         -5.00000000	         90.00000000	        -10.00000000	         90.00000000	
        148.70000000	        -32.50000000	        -10.00000000	         15.00000000	          0.00000000	          0.00000000	         -5.00000000	         90.00000000	        -10.00000000	         90.00000000	
        148.71000000	        -15.00000000	        -10.00000000	         15.00000000	          0.00000000	          0.00000000	         -5.00000000	         90.00000000	        -10.00000000	         90.00000000	
        148.72000000	        -50.00000000	          5.00000000	         15.00000000	          0.00000000	          0.00000000	         -5.00000000	         90.00000000	        -10.00000000	         90.00000000	
        148.73000000	        -32.50000000	          5.00000000	         15.00000000	          0.00000000	          0.00000000	         -5.00000000	         90.00000000	        -10.00000000	         90.00000000	
        148.74000000	        -15.00000000	          5.00000000	         15.00000000	          0.00000000	          0.00000000	         -5.00000000	         90.00000000	        -10.00000000	         90.00000000	
        148.75000000	        -50.00000000	         20.00000000	         15.00000000	          0.00000000	          0.00000000	         -5.00000000	         90.00000000	        -10.00000000	         90.00000000	
        148.76000000	        -32.50000000	         20.00000000	         15.00000000	          0.00000000	          0.00000000	         -5.00000000	         90.00000000	        -10.00000000	         90.00000000	
        148.77000000	        -15.00000000	         20.00000000	         15.00000000	          0.00000000	          0.00000000	         -5.00000000	         90.00000000	        -10.00000000	         90.00000000	
        148.78000000	        -50.00000000	        -10.00000000	        -40.00000000	         10.00000000	          0.00000000	         -5.00000000	         90.00000000	        -10.00000000	         90.00000000	
        148.79000000	        -32.50000000	        -10.00000000	        -40.00000000	         10.00000000	          0.00000000	         -5.00000000	         90.00000000	        -10.00000000	         90.00000000	
        148.80000000	        -15.00000000	        -10.00000000	        -40.00000000	         10.00000000	          0.00000000	         -5.00000000	         90.00000000	        -10.00000000	         90.00000000	
        148.81000000	        -50.00000000	          5.00000000	        -40.00000000	         10.00000000	          0.00000000	         -5.00000000	         90.00000000	        -10.00000000	         90.00000000	
        148.82000000	        -32.50000000	          5.00000000	        -40.00000000	         10.00000000	          0.00000000	         -5.00000000	         90.00000000	        -10.00000000	         90.00000000	
        148.83000000	        -15.00000000	          5.00000000	        -40.00000000	         10.00000000	          0.00000000	         -5.00000000	         90.00000000	        -10.00000000	         90.00000000	
        148.84000000	        -50.00000000	         20.00000000	        -40.00000000	         10.00000000	          0.00000000	         -5.00000000	         90.00000000	        -10.00000000	         90.00000000	
        148.85000000	        -32.50000000	         20.00000000	        -40.00000000	         10.00000000	          0.00000000	         -5.00000000	         90.00000000	        -10.00000000	         90.00000000	
        148.86000000	        -15.00000000	         20.00000000	        -40.00000000	         10.00000000	          0.00000000	         -5.00000000	         90.00000000	        -10.00000000	         90.00000000	
        148.87000000	        -50.00000000	        -10.00000000	        -12.50000000	         10.00000000	          0.00000000	         -5.00000000	         90.00000000	        -10.00000000	         90.00000000	
        148.88000000	        -32.50000000	        -10.00000000	        -12.50000000	         10.00000000	          0.00000000	         -5.00000000	         90.00000000	        -10.00000000	         90.00000000	
        148.89000000	        -15.00000000	        -10.00000000	        -12.50000000	         10.00000000	          0.00000000	         -5.00000000	         90.00000000	        -10.00000000	         90.00000000	
        148.90000000	        -50.00000000	          5.00000000	        -12.50000000	         10.00000000	          0.00000000	         -5.00000000	         90.00000000	        -10.00000000	         90.00000000	
        148.91000000	        -32.50000000	          5.00000000	        -12.50000000	         10.00000000	          0.00000000	         -5.00000000	         90.00000000	        -10.00000000	         90.00000000	
        148.92000000	        -15.00000000	          5.00000000	        -12.50000000	         10.00000000	          0.00000000	         -5.00000000	         90.00000000	        -10.00000000	         90.00000000	
        148.93000000	        -50.00000000	         20.00000000	        -12.50000000	         10.00000000	          0.00000000	         -5.00000000	         90.00000000	        -10.00000000	         90.00000000	
